<svg xmlns="http://www.w3.org/2000/svg" viewBox="0 0 64 64" fill="none" stroke="#e8c66f" stroke-width="1.6" stroke-linecap="round" stroke-linejoin="round">
  <title>LangX parrot</title>
  <!-- crown plume -->
  <path d="M28 9c1.5-2 3.5-3 6-3 1.4 0 2.6.4 3.6 1.1-.4 1.6-1.6 2.7-3 3" />
  <path d="M32 7c-1 1.5-1.6 3.4-1.7 5.4" />
  <!-- head + curved beak -->
  <path d="M22 18c2-4 6-7 11-7 6.6 0 12 5.1 12 11.4 0 4-2.2 7.5-5.5 9.4" />
  <path d="M45 22c2.6.7 4.6 2.4 5.5 4.7-2.2.5-4.4-.2-5.9-1.7" />
  <path d="M44.5 25.7l-3 1.6 3 1.4" />
  <!-- eye -->
  <circle cx="38.5" cy="20.5" r="0.9" fill="#e8c66f" stroke="none" />
  <!-- breast + body -->
  <path d="M22 18c-3 4-4 9-3 14 1.2 6 5.8 10 11 11 6.5 1.2 12-3 13-9" />
  <!-- wing curve, 3 feather strokes -->
  <path d="M27 27c4-2 9-2 13 0" />
  <path d="M28 32c4-1.5 9-1.5 13 .5" />
  <path d="M29 37c3.5-1 7.5-.8 11 .8" />
  <!-- tail -->
  <path d="M19 33c-3 3-5 7-5 11 3-.5 5.5-2 7-4" />
  <path d="M16 41c1 2 3 3 5 3" />
  <!-- branch perch -->
  <path d="M14 50c8 1 22 1 36-1" />
  <!-- foot -->
  <path d="M30 44v6m0-6l-2 2m2-2l2 2" />
  <path d="M36 45v5m0-5l-2 2m2-2l2 2" />
</svg>
